HIERARCHY
ROOT Hips
{
	OFFSET 0.000000 0.000000 0.000000
	CHANNELS 6 Xposition Yposition Zposition Zrotation Yrotation Xrotation
	JOINT LHipJoint
	{
		OFFSET 0.000000 0.000000 0.000000
		CHANNELS 3 Zrotation Yrotation Xrotation
		JOINT LeftHip
		{
			OFFSET 0.070429 -0.092715 0.040477
			CHANNELS 3 Zrotation Yrotation Xrotation
			JOINT LeftKnee
			{
				OFFSET 0.140731 -0.386656 0.000000
				CHANNELS 3 Zrotation Yrotation Xrotation
				JOINT LeftAnkle
				{
					OFFSET 0.133642 -0.367180 0.000000
					CHANNELS 3 Zrotation Yrotation Xrotation
					JOINT LeftToe
					{
						OFFSET 0.008365 -0.022983 0.124964
						CHANNELS 3 Zrotation Yrotation Xrotation
						End Site
						{
							OFFSET 0.000000 0.000000 0.064059
						}
					}
				}
			}
		}
	}
	JOINT RHipJoint
	{
		OFFSET 0.000000 0.000000 0.000000
		CHANNELS 3 Zrotation Yrotation Xrotation
		JOINT RightHip
		{
			OFFSET -0.066785 -0.092715 0.040477
			CHANNELS 3 Zrotation Yrotation Xrotation
			JOINT RightKnee
			{
				OFFSET -0.139168 -0.382361 0.000000
				CHANNELS 3 Zrotation Yrotation Xrotation
				JOINT RightAnkle
				{
					OFFSET -0.134591 -0.369785 0.000000
					CHANNELS 3 Zrotation Yrotation Xrotation
					JOINT RightToe
					{
						OFFSET -0.009852 -0.027067 0.114539
						CHANNELS 3 Zrotation Yrotation Xrotation
						End Site
						{
							OFFSET 0.000000 0.000000 0.059309
						}
					}
				}
			}
		}
	}
	JOINT lowerback
	{
		OFFSET 0.000000 0.000000 0.000000
		CHANNELS 3 Zrotation Yrotation Xrotation
		JOINT Chest
		{
			OFFSET -0.001301 0.112132 0.000180
			CHANNELS 3 Zrotation Yrotation Xrotation
			JOINT Chest2
			{
				OFFSET -0.000405 0.112342 -0.000301
				CHANNELS 3 Zrotation Yrotation Xrotation
				JOINT lowerneck
				{
					OFFSET 0.000000 0.000000 0.000000
					CHANNELS 3 Zrotation Yrotation Xrotation
					JOINT Neck
					{
						OFFSET 0.000054 0.090883 0.006038
						CHANNELS 3 Zrotation Yrotation Xrotation
						JOINT Head
						{
							OFFSET -0.000598 0.090268 0.000743
							CHANNELS 3 Zrotation Yrotation Xrotation
							End Site
							{
								OFFSET -0.000259 0.092175 -0.000334
							}
						}
					}
				}
				JOINT LeftCollar
				{
					OFFSET 0.000000 0.000000 0.000000
					CHANNELS 3 Zrotation Yrotation Xrotation
					JOINT LeftShoulder
					{
						OFFSET 0.172369 0.083022 -0.000958
						CHANNELS 3 Zrotation Xrotation Yrotation
						JOINT LeftElbow
						{
							OFFSET 0.000000 -0.239947 0.000000
							CHANNELS 3 Zrotation Xrotation Yrotation
							JOINT LeftWrist
							{
								OFFSET 0.000000 -0.184906 0.000000
								CHANNELS 3 Zrotation Xrotation Yrotation
								JOINT lhand
								{
									OFFSET 0.000000 0.000000 0.000000
									CHANNELS 3 Zrotation Xrotation Yrotation
									JOINT LFingers
									{
										OFFSET 0.000000 -0.037129 0.000000
										CHANNELS 3 Zrotation Xrotation Yrotation
										End Site
										{
											OFFSET 0.000000 -0.029935 0.000000
										}
									}
								}
								JOINT LThumb
								{
									OFFSET 0.000000 0.000000 0.000000
									CHANNELS 3 Zrotation Xrotation Yrotation
									End Site
									{
										OFFSET 0.000000 -0.030392 0.030392
									}
								}
							}
						}
					}
				}
				JOINT RightCollar
				{
					OFFSET 0.000000 0.000000 0.000000
					CHANNELS 3 Zrotation Yrotation Xrotation
					JOINT RightShoulder
					{
						OFFSET -0.160129 0.074291 -0.012798
						CHANNELS 3 Zrotation Xrotation Yrotation
						JOINT RightElbow
						{
							OFFSET 0.000000 -0.251781 0.000000
							CHANNELS 3 Zrotation Xrotation Yrotation
							JOINT RightWrist
							{
								OFFSET 0.000000 -0.194402 0.000000
								CHANNELS 3 Zrotation Xrotation Yrotation
								JOINT rhand
								{
									OFFSET 0.000000 0.000000 0.000000
									CHANNELS 3 Zrotation Xrotation Yrotation
									JOINT RFingers
									{
										OFFSET 0.000000 -0.034798 0.000000
										CHANNELS 3 Zrotation Xrotation Yrotation
										End Site
										{
											OFFSET 0.000000 -0.028055 0.000000
										}
									}
								}
								JOINT RThumb
								{
									OFFSET 0.000000 0.000000 0.000000
									CHANNELS 3 Zrotation Xrotation Yrotation
									End Site
									{
										OFFSET 0.000000 -0.028484 0.028484
									}
								}
							}
						}
					}
				}
			}
		}
	}
}
MOTION
Frames: 11
Frame Time: 0.008333
0.577710 0.803881 -0.234135 -176.828980 56.113901 -178.729986 -0.000002 0.000001 -0.000001 -14.010203 -19.495301 -26.254598 18.794311 19.965099 86.472702 -0.077912 -33.308497 -23.279197 1.467606 7.655904 21.673599 0.000001 -0.000000 0.000006 -0.608308 24.697006 -46.600297 -10.710070 -17.790307 61.836387 -0.261401 2.726201 -9.101300 -3.607412 11.618905 -34.396604 -0.076400 1.028199 10.483002 6.588499 2.038092 6.910097 6.767899 1.173899 1.108098 -3.237898 -13.673301 -2.508901 5.059100 -18.540099 19.707201 0.783201 -8.456900 7.256498 0.000001 -0.000001 -0.000003 6.616309 18.154810 -44.967995 26.744412 -37.934300 9.341522 22.285002 -17.441498 -9.089997 -0.000002 0.000001 0.000001 -7.125007 0.000003 0.000001 -4.063188 39.758217 -0.526011 -0.000004 0.000001 -0.000000 5.051504 -39.421810 54.543801 -151.378999 -39.681620 -109.482195 -25.958211 -29.904699 17.104296 -0.000002 0.000000 0.000000 7.125003 0.000000 -0.000000 1.904192 48.864010 -0.181491 
0.576750 0.806105 -0.233244 -176.705996 56.129402 -178.470015 -0.000005 0.000003 0.000002 -13.969593 -19.298300 -26.269101 18.607911 19.953498 85.926806 0.165199 -32.572308 -23.940889 1.305099 7.237103 20.419797 -0.000001 -0.000003 0.000001 -0.484408 24.722501 -46.459999 -10.495075 -17.679006 61.130699 -0.240402 2.604606 -8.727700 -3.630110 11.651202 -34.509104 0.060900 0.854899 10.458000 6.496096 1.813002 6.902803 6.612497 1.063796 1.145997 -3.148199 -13.584696 -2.452899 5.154500 -18.443599 19.502603 0.819000 -8.411898 7.175904 0.000006 0.000002 -0.000001 6.626707 18.097015 -44.976703 26.040106 -37.248303 8.911918 22.125206 -17.703700 -8.909894 -0.000001 -0.000001 -0.000001 -7.125004 -0.000004 -0.000002 -4.180288 39.552212 -0.562414 -0.000004 0.000004 0.000000 4.700603 -39.481014 54.444889 -151.275890 -39.774319 -109.416291 -25.905407 -29.788303 16.818393 0.000001 0.000000 0.000000 7.125003 -0.000000 -0.000000 1.902289 48.544203 -0.166391 
0.575311 0.809176 -0.232419 -176.578968 56.183405 -178.151988 0.000001 0.000003 0.000003 -13.962297 -19.124996 -26.254095 18.347408 19.934394 85.162999 0.422290 -31.737198 -24.633494 1.131606 6.756104 18.994898 -0.000001 0.000003 0.000001 -0.390311 24.787906 -46.255397 -10.207474 -17.524906 60.179601 -0.213401 2.509108 -8.217899 -3.634909 11.658001 -34.532504 0.182800 0.667204 10.393300 6.393898 1.563598 6.887300 6.458000 0.940100 1.197801 -3.032500 -13.501994 -2.413098 5.244701 -18.357300 19.335799 0.846200 -8.368199 7.108098 0.000004 0.000004 0.000004 6.649305 17.997511 -45.068201 25.411907 -36.621999 8.534420 21.767506 -17.831698 -8.655397 0.000000 0.000001 0.000001 -7.125005 0.000001 0.000004 -4.459390 39.251513 -0.633108 -0.000004 0.000004 0.000003 4.210900 -39.558813 54.221795 -151.186087 -39.854816 -109.358698 -25.840812 -29.599304 16.571989 -0.000002 -0.000000 -0.000000 7.125005 -0.000000 -0.000000 1.919891 48.266310 -0.154791 
0.573409 0.813002 -0.231669 -176.456995 56.326804 -177.780999 -0.000004 0.000001 0.000003 -13.978597 -18.938699 -26.192302 18.003614 19.904192 84.154003 0.686293 -30.880296 -25.379593 0.959603 6.237602 17.475295 0.000001 0.000002 -0.000001 -0.328614 24.906908 -46.005999 -9.851775 -17.325711 58.991996 -0.181701 2.480400 -7.576200 -3.619713 11.636408 -34.457604 0.277300 0.487600 10.292799 6.282799 1.318600 6.862702 6.309100 0.816798 1.257101 -2.895399 -13.428798 -2.399500 5.322402 -18.285098 19.213097 0.862200 -8.328001 7.056792 0.000002 -0.000002 0.000001 6.686808 17.860311 -45.236695 24.875513 -36.076492 8.216519 21.210700 -17.771399 -8.341797 -0.000001 -0.000001 -0.000000 -7.125006 0.000000 -0.000001 -4.901387 38.874510 -0.741716 -0.000006 0.000002 -0.000001 3.622701 -39.649112 53.904000 -151.141103 -39.895012 -109.329902 -25.810407 -29.389300 16.371689 -0.000000 0.000000 0.000000 7.125006 0.000000 -0.000000 1.913392 48.043404 -0.143692 
0.571072 0.817512 -0.231037 -176.345990 56.593404 -177.364003 -0.000001 -0.000002 0.000003 -14.019000 -18.713996 -26.065100 17.571116 19.857991 82.882208 0.957292 -30.045995 -26.206189 0.797207 5.699102 15.913895 0.000001 -0.000005 0.000001 -0.296607 25.059001 -45.730702 -9.434072 -17.079108 57.579403 -0.146700 2.571307 -6.803002 -3.587014 11.589501 -34.294902 0.349900 0.331997 10.164301 6.159099 1.099505 6.822901 6.156298 0.704799 1.310999 -2.745902 -13.367996 -2.416699 5.382999 -18.230000 19.138303 0.866001 -8.293500 7.024596 0.000001 0.000003 0.000000 6.748010 17.703212 -45.475205 24.444615 -35.630901 7.964120 20.475900 -17.500302 -7.965598 0.000002 0.000001 0.000001 -7.125001 -0.000001 -0.000000 -5.485088 38.421515 -0.891909 -0.000002 0.000002 -0.000001 2.954901 -39.728103 53.490794 -151.148685 -39.888219 -109.334793 -25.807405 -29.211196 16.203797 -0.000002 -0.000000 -0.000000 7.125002 -0.000000 -0.000000 1.886590 47.860508 -0.133192 
0.568329 0.822598 -0.230529 -176.278016 56.995504 -176.926010 0.000000 -0.000002 0.000003 -14.103498 -18.448198 -25.864502 17.050213 19.790094 81.346399 1.244387 -29.222408 -27.146189 0.643900 5.133600 14.289999 0.000004 -0.000005 0.000001 -0.306109 25.195405 -45.458204 -8.962780 -16.783708 55.961307 -0.108799 2.837503 -5.893102 -3.544312 11.528007 -34.081903 0.390100 0.204397 10.009401 6.019000 0.910497 6.767701 6.000798 0.605796 1.358500 -2.592599 -13.314699 -2.479502 5.421199 -18.184897 19.103798 0.857101 -8.262500 7.011298 0.000006 -0.000000 -0.000001 6.832607 17.530611 -45.753702 24.129011 -35.300402 7.781020 19.584604 -17.032204 -7.514496 0.000000 -0.000002 -0.000000 -7.125004 -0.000000 0.000001 -6.187593 37.883914 -1.089012 -0.000000 -0.000001 -0.000001 2.270105 -39.808706 53.035398 -151.208982 -39.834316 -109.373397 -25.868711 -29.083509 16.080994 0.000000 -0.000000 -0.000000 7.125005 -0.000000 -0.000000 1.806093 47.735704 -0.121892 
0.565219 0.828152 -0.230167 -176.210985 57.547506 -176.441982 -0.000003 -0.000003 -0.000004 -14.206402 -18.119397 -25.591095 16.447613 19.694695 79.562599 1.549689 -28.395606 -28.197487 0.503901 4.550404 12.630600 -0.000002 -0.000004 -0.000001 -0.315609 25.280706 -45.206297 -8.448275 -16.439302 54.161798 -0.067399 3.318305 -4.835000 -3.497110 11.459304 -33.845104 0.412900 0.105298 9.844601 5.877099 0.755409 6.688705 5.849400 0.522497 1.382000 -2.455600 -13.260199 -2.581099 5.423601 -18.134301 19.099603 0.836200 -8.230900 7.012403 0.000004 0.000004 -0.000000 6.919607 17.373416 -46.033904 23.934313 -35.094704 7.668720 18.583205 -16.413501 -6.978295 -0.000003 0.000000 0.000001 -7.125008 0.000000 0.000001 -6.964995 37.257210 -1.334914 -0.000004 0.000002 0.000003 1.622105 -39.890108 52.593696 -151.311394 -39.742426 -109.439008 -25.953510 -29.025411 16.009197 -0.000001 0.000000 0.000000 7.125004 0.000000 -0.000000 1.712194 47.669902 -0.112791 
0.561781 0.834056 -0.229942 -176.158966 58.223101 -175.920975 -0.000001 -0.000003 0.000000 -14.341297 -17.754897 -25.260603 15.776316 19.566796 77.564502 1.874996 -27.502498 -29.335485 0.376803 3.942606 10.915202 0.000002 -0.000003 -0.000001 -0.321306 25.243809 -45.008293 -7.905273 -16.049205 52.220908 -0.020597 4.058107 -3.620999 -3.450012 11.390212 -33.607304 0.419200 0.025402 9.678498 5.736400 0.622899 6.578800 5.705999 0.449499 1.370601 -2.343401 -13.196199 -2.721500 5.389601 -18.066197 19.108696 0.805900 -8.194502 7.022498 0.000002 -0.000001 0.000001 7.014008 17.244214 -46.307402 23.866313 -35.022604 7.629722 17.515706 -15.730303 -6.373094 0.000001 0.000000 0.000001 -7.125004 0.000000 -0.000000 -7.780292 36.563710 -1.626308 -0.000004 0.000002 0.000001 1.037709 -39.958915 52.198201 -151.453298 -39.614708 -109.529494 -26.046011 -29.040103 15.965786 -0.000001 0.000000 -0.000000 7.125003 0.000000 -0.000000 1.615894 47.636994 -0.105191 
0.558090 0.840220 -0.229879 -176.149991 59.007698 -175.398985 0.000001 -0.000003 0.000001 -14.538498 -17.365694 -24.878197 15.051816 19.402597 75.392803 2.218294 -26.468602 -30.526499 0.263703 3.303900 9.125899 0.000001 -0.000003 0.000003 -0.321612 25.038604 -44.883495 -7.351484 -15.620907 50.191597 0.034502 5.058306 -2.246003 -3.401709 11.318505 -33.361803 0.388600 -0.039697 9.506301 5.604899 0.506101 6.437502 5.591397 0.382704 1.327704 -2.280600 -13.114997 -2.891402 5.324701 -17.967801 19.110301 0.773601 -8.150099 7.035493 0.000004 0.000003 0.000000 7.097605 17.149910 -46.550601 23.919314 -35.078803 7.660119 16.432102 -15.058405 -5.723194 0.000000 0.000001 0.000001 -7.125004 0.000001 -0.000000 -8.593491 35.833215 -1.954111 -0.000002 0.000002 0.000002 0.536302 -40.039402 51.893797 -151.608001 -39.474621 -109.628006 -26.134013 -29.109300 15.960088 0.000003 0.000000 0.000000 7.125006 0.000000 0.000000 1.530398 47.644111 -0.099892 
0.554235 0.846502 -0.229959 -176.171001 59.872407 -174.870000 -0.000002 -0.000001 0.000000 -14.792796 -16.970696 -24.461102 14.295112 19.201096 73.103692 2.567595 -25.247709 -31.712090 0.169199 2.649601 7.304699 0.000003 -0.000006 0.000003 -0.282212 24.627605 -44.849792 -6.809777 -15.169603 48.151399 0.099703 6.279209 -0.756200 -3.354212 11.247412 -33.118904 0.336700 -0.089899 9.319300 5.488097 0.406798 6.269700 5.502899 0.323700 1.263200 -2.259201 -13.019498 -3.091801 5.237500 -17.844498 19.087507 0.740799 -8.099601 7.046398 0.000004 -0.000000 0.000001 7.187706 17.075809 -46.787305 24.084912 -35.253902 7.755518 15.385402 -14.489601 -5.064396 -0.000001 0.000000 0.000000 -7.125004 -0.000003 0.000001 -9.365695 35.105612 -2.301413 -0.000002 0.000000 -0.000001 0.132600 -40.170603 51.681596 -151.751982 -39.343519 -109.719496 -26.178804 -29.218600 16.008094 0.000000 0.000000 0.000000 7.125004 0.000000 -0.000000 1.495297 47.703107 -0.099791 
0.550301 0.852767 -0.230156 -176.203007 60.794797 -174.334008 -0.000004 -0.000002 0.000002 -15.093897 -16.589594 -24.024501 13.527212 18.964295 70.755302 2.901686 -23.830209 -32.813185 0.097000 2.009002 5.530398 0.000000 -0.000005 0.000004 -0.168412 24.011807 -44.921109 -6.307077 -14.719503 46.202292 0.173202 7.600509 0.748897 -3.318609 11.193712 -32.936101 0.226800 -0.145201 9.121300 5.420597 0.298001 6.070300 5.500400 0.258000 1.172901 -2.324800 -12.887997 -3.279899 5.126499 -17.659799 19.028303 0.720001 -8.030199 7.046397 -0.000001 0.000002 -0.000000 7.209110 17.049313 -46.935301 24.350014 -35.532208 7.909022 14.390604 -14.067802 -4.444097 -0.000001 -0.000001 -0.000002 -7.125004 -0.000002 0.000000 -10.092496 34.428808 -2.653010 -0.000002 0.000001 0.000000 -0.196397 -40.329405 51.640694 -151.871387 -39.234417 -109.795093 -26.166304 -29.388596 16.074405 -0.000001 0.000000 -0.000000 7.125003 0.000000 0.000000 1.518491 47.773106 -0.103890 
